<?xml version="1.0" standalone="no"?>
<!DOCTYPE svg PUBLIC "-//W3C//DTD SVG 20001102//EN" 
  "http://www.w3.org/TR/2000/CR-SVG-20001102/DTD/svg-20001102.dtd">

<svg width="600" height="600">
     
  <title> Duke </title>
  
  <defs>
   <clipPath id="headClip">
      <path d="M -50 175 A 175 75 0 1 1 300 175 L 300 0 L -50 0 z" />
    </clipPath>

  </defs>
	
   <!-- draw outline of arms -->
  <g style="stroke:black; stroke-width:4; fill:none">
    <path d="M 138 100 C 170 135 180 120 150 140"/>
    <path d="M 63 100 C 33 135 23 120 53 140"/>
  </g>

  <!-- draw body -->
  <path d="M 100 25 C 140 60 170 200 140 200 C 130 200 120 175 90 175 
           C 70 175 70 200 60 200 C 40 200 60 60 100 25 z" style="fill:white"/>

  <!-- draw head -->
  <g style="fill:black; clip-path:URL(#headClip)">
    <path d="M 100 25 C 140 60 170 200 140 200 C 130 200 120 175 90 175 
           C 70 175 70 200 60 200 C 40 200 60 60 100 25 z" />
  </g>


  <!-- draw nose -->
  <ellipse cx="100" cy="100" rx="30" ry="25" style="fill:rgb(148,8,57)"/>

  <!-- draw nose shine -->
  <ellipse cx="0" cy="0" rx="12" ry="9" transform="translate(90,90)rotate(-18)"
           style="fill:white"/>

  <!-- draw outlines of body and nose -->
  <g style="stroke:black; stroke-width:4; fill:none">
    <path d="M 100 25 C 140 60 170 200 140 200 C 130 200 120 175 90 175 
                      C 70 175 70 200 60 200 C 40 200 60 60 100 25 z"/>
    <ellipse cx="100" cy="100" rx="30" ry="25"/>
  </g>

</svg>
