<?xml version="1.0" standalone="no"?>
<!DOCTYPE svg PUBLIC "-//W3C//DTD SVG 20001102//EN" 
  "http://www.w3.org/TR/2000/CR-SVG-20001102/DTD/svg-20001102.dtd">

<!-- SLIDEHEADER -->
<svg width="800" height="600">

<!-- ============================================ -->
<!-- Slide Background                             -->
<!-- ============================================ -->

<defs>
  <!-- STYLE -->
  <style type="text/css"><![CDATA[
    .title {fill:black; font-size: 50; font-family: Verdana, Helvetica, sans-serif } 
    .titleshadow {fill:#ccaaaa; font-size: 50; font-family: Verdana, Helvetica, sans-serif } 
    .normal {fill:black; font-size: 35; font-family: Verdana, Helvetica, sans-serif } 
    .smaller {fill:black; font-size: 25; font-family: Verdana, Helvetica, sans-serif } 
    .outercircle {fill:#88aa88 }
    .innercircle {fill:#555555 }
    ]]>
  </style>
  <!-- ENDSTYLE -->
  <!-- BACKGRADIENT -->
  <radialGradient id="radgrad" gradientUnits="objectBoundingBox" cx="10%" cy="90%" fx="10%" fy="90%" r="90%">
    <stop offset="0%" style="stop-color:#2222aa"/>
    <stop offset="100%" style="stop-color:#aaaaaa"/>
  </radialGradient>
  <!-- ENDBACKGRADIENT -->
  <!-- NEXTARROW -->
  <symbol id="arrow" viewBox="0 0 3 3">
    <path d="M0,1L1.5,1L1.5,0L3,1.5L1.5,3L1.5,2L0,2Z"/>
  </symbol>
  <!-- ENDNEXTARROW -->
</defs>

<g>

  <!-- BACKGROUND -->
  <rect style="fill:url(#radgrad); stroke:#000000; stroke-width: 4" x="2" y="2" width="796" height="596"/>
  <!-- ENDBACKGROUND -->
  <!-- LOGO -->
  <image x="710" y="10" width="80" height="100" xlink:href="csiro.svg"/>
  <!-- ENDLOGO -->
  <!-- URL -->
  <text x="10" y="590" style="fill:#000000; font-family: Verdana; font-size:25">
  http://www.cmis.csiro.au/svg
  </text>
  <!-- ENDURL -->

  <!-- ARROWLINK -->
  <a xlink:href="stroke.svg">
    <use x="753" y="560" width="50" height="35" style="fill:#993333;stroke:#000000;stroke-width:0.1" xlink:href="#arrow"/>
  </a>
  <!-- ENDARROWLINK -->
</g>

<!-- ENDSLIDEHEADER -->

<!-- ============================================ -->
<!-- Slide Body                                   -->
<!-- ============================================ -->

<g>

<text x="33" y="83" class="titleshadow">Paths</text>
<text x="30" y="80" class="title">Paths</text>

<line x1="50" y1="250" x2="70" y2="150" style="stroke:#dddd99; stroke-width: 3; stroke-dasharray: 5 5;"/>
<line x1="150" y1="250" x2="130" y2="150" style="stroke:#dddd99; stroke-width: 3 ; stroke-dasharray: 5 5;"/>

<path style="fill:none;stroke:#000000;stroke-width:6" 
	d="
		M	50		250
		
		c	20		-100
			80		-100
			100		0
			
	"
/>


<rect x="48" y="248" width="4" height="4" style="fill:#FF4A83;stroke:none;"/>
<rect x="68" y="148" width="4" height="4" style="fill:#FF4A83;stroke:none;"/>

<rect x="148" y="248" width="4" height="4" style="fill:#FF4A83;stroke:none;"/>
<rect x="128" y="148" width="4" height="4" style="fill:#FF4A83;stroke:none;"/>

<line x1="50" y1="370" x2="30" y2="270" style="stroke:#dddd99; stroke-width: 3; stroke-dasharray: 5 5;"/>
<line x1="150" y1="370" x2="170" y2="270" style="stroke:#dddd99; stroke-width: 3; stroke-dasharray: 5 5;"/>

<path style="fill:none;stroke:#000000;stroke-width:6" 
	d="
		M	50		370
		
		c	-20		-100
			120		-100
			100		0
			
	"
/>

<rect x="48" y="368" width="4" height="4" style="fill:#FF4A83;stroke:none;"/>
<rect x="28" y="268" width="4" height="4" style="fill:#FF4A83;stroke:none;"/>

<rect x="148" y="368" width="4" height="4" style="fill:#FF4A83;stroke:none;"/>
<rect x="168" y="268" width="4" height="4" style="fill:#FF4A83;stroke:none;"/>



<line x1="50" y1="490" x2="50" y2="390" style="stroke:#dddd99; stroke-width: 3; stroke-dasharray: 5 5;"/>
<line x1="150" y1="490" x2="110" y2="430" style="stroke:#dddd99; stroke-width: 3; stroke-dasharray: 5 5;"/>

<path style="fill:none;stroke:#000000;stroke-width:6" 
	d="
		M	50		490
		
		c	0		-100
			60		-60
			100		0
			
	"
/>

<rect x="48" y="488" width="4" height="4" style="fill:#FF4A83;stroke:none;"/>
<rect x="48" y="388" width="4" height="4" style="fill:#FF4A83;stroke:none;"/>

<rect x="148" y="488" width="4" height="4" style="fill:#FF4A83;stroke:none;"/>
<rect x="108" y="428" width="4" height="4" style="fill:#FF4A83;stroke:none;"/>

<!-- filled -->

<path style="fill:#a0a0a0;stroke:#000000;stroke-width:6" 
	d="
		M	250		240
		
		c	-40	 -60
			 95	-100
			 80	   0
		
		z			
	"
/>

<rect x="248" y="238" width="4" height="4" style="fill:#FF4A83;stroke:none;"/>
<rect x="328" y="238" width="4" height="4" style="fill:#FF4A83;stroke:none;"/>

<path style="fill:#cccc00;stroke:#000000;stroke-width:6" 
	d="
		M	320	320
		
		c	  0	 20
			-16	 36
			-36	 36
			
		s	-36	-16
			-36	-36
			
		s	 16	-36
			 36	-36

		s	 36	 16
			 36	 36
		z
	"
/>
	
<rect x="318" y="318" width="4" height="4" style="fill:#FF4A83;stroke:none;"/>
<rect x="282" y="354" width="4" height="4" style="fill:#FF4A83;stroke:none;"/>
<rect x="246" y="318" width="4" height="4" style="fill:#FF4A83;stroke:none;"/>
<rect x="282" y="282" width="4" height="4" style="fill:#FF4A83;stroke:none;"/>


<path style="fill:#00cccc;stroke:#000000;stroke-width:6" 
	d="
		m	260	490
		
		c	 50	-40
			 50	-100
			 25	-100
			
		s	-25	 60
			 25	 100
	"
/>

<rect x="258" y="488" width="4" height="4" style="fill:#FF4A83;stroke:none;"/>
<rect x="283" y="388" width="4" height="4" style="fill:#FF4A83;stroke:none;"/>
<rect x="308" y="488" width="4" height="4" style="fill:#FF4A83;stroke:none;"/>

<path style="fill:#CF0000;stroke:#000000;stroke-width:6" 
	d="
		M	 380	  150
		
		a	  40	   40
			   0	  
			   0
			   1
			  65	   50
	        Z
	        
	        m	  50       50

	        	   
	        a	  20       20
	        	   0
	        	   0
	        	   0 
	        	 65	  50 
			
		Z
		
	        m	  50       27

	        	   
	        a	  20       20
	        	   0
	        	   0
	        	   1 
	        	  65	   50 
			
		z	"
/> 

<g>
<defs>
    <marker id="MyStartMarker" orient="45" refX="5" refY="5" viewBox="0 0 10 10" >
      <rect width="10" height="10" style="fill:lime; stroke-width:1"/>
    </marker>
    <marker id="MyMidMarker" viewBox="-5 -5 10 10">
      <circle r="5"  style="fill:red; stroke-width:1"/>
    </marker>
    <marker id="MyEndMarker" orient="30" viewBox="-15 -5 30 10">
      <ellipse rx="15" ry="5" style="fill:blue; stroke-width:1"/>
    </marker>
</defs>
<path style="fill:#cc00cc;stroke:#000000;stroke-width:6;marker-start: url(#MyStartMarker);  marker-mid: url(#MyMidMarker);  marker-end: url(#MyEndMarker);" 
	d="
	M 380 350
        L 380 480
        c 100 -50
          270 -80
          320 0
        a 30 30
          0 0 0
          0 -60
        a 60 60
          0 0 1
          0 -120
        l 0 -120
        l -100 0
        l -30 140
        "
/>

</g>
</g>

</svg>
