<?xml version = "1.0" standalone = "no"?>
<!DOCTYPE svg PUBLIC "-//W3C//DTD SVG 20001102//EN" 
  "http://www.w3.org/TR/2000/CR-SVG-20001102/DTD/svg-20001102.dtd"
[
	<!ENTITY st0 "fill-rule:nonzero;fill:#00819B;">
	<!ENTITY st1 "fill-rule:nonzero;fill:#000000;">
]>
<svg xml:space="preserve" width="238.107" height="286.144" onload="showHelp()" onunload="timer.clearInterval()">
  <defs>
    <script type="text\ecmascript" ><![CDATA[
      /*
      **  Script to animate the CSIRO logo.
      */
	function showHelp()
	{
		var i;
		for (i=0;i<5;i++)
			java.lang.System.out.println('');
		java.lang.System.out.println('Script to animate the CSIRO logo.');
		java.lang.System.out.println('click on the letters of CSIRO.');
		for (i=0;i<5;i++)
			java.lang.System.out.println('');
	}
	/*
	**	Global variables...
	*/
	var svgDoc;
      var csiroGroup;
	var timesCalled=1;
	var a = new Array();
	var s = new Array();
      function on_load(evt)
      {
        svgDoc = document;
        csiroGroup = svgDoc.getElementById ('csiro');
      }
	function animate(element,evt)
	{
	  on_load(evt);
	  csiroGroup = svgDoc.getElementById(element);
		java.lang.System.out.println('csiroGroup='+csiroGroup.getId());
          timer.setInterval("move_element('" + csiroGroup.getId() + "')", 100);
	}
	function start_animate_element(evt)
	{
	  var	element = evt.getTarget();
	  if (element != null)
	  {
	    java.lang.System.out.println('start_animate_element::element='+element.getId());
	    stop_animate_element(evt);
	    //element.setAttribute('onclick',"stop_animate_element("+"evt)");
	    //move_element(element.getId(),timesCalled);
	    //timer.setInterval("move_element(" + element.getId() + ",1)", 1000);
	    timesCalled = timesCalled * 0.95;
	    var scalefactor = timesCalled;
	    //element.setAttribute('transform', "scale("+scalefactor+")");
          timer.setInterval("move_element('" + element.getId() + "')", 500);
	  }	
	}
	function stop_animate_element(evt)
	{
	  var	element = evt.getTarget();
	  if (element != null)
	  {
	    java.lang.System.out.println('stop_animate_element::element='+element.getId());
	    //element.setAttribute('onclick',"start_animate_element("+"evt)");
	    timer.clearInterval("move_element('" + element.getId() + "')");
	  }	
	}
	function move_element(elementId)
	{
	  var element = a[elementId];
        if (element == null)
        {
	    element = a[elementId] = svgDoc.getElementById(elementId);
          s[elementId] = 0.99;
        }
	  var scalefactor = s[elementId]; 
	  if (scalefactor < 0.75)
        {
          scalefactor = 1;
          s[elementId] = 0.99;
	  }
	  //element.setAttribute('transform', "translate(" +(scalefactor*10)+","+(scalefactor*50)+") scale("+scalefactor+")");
	  s[elementId] = s[elementId]*scalefactor;
	  element.setAttribute('transform', "scale("+s[elementId]+")");
	}
    ]]></script>
  </defs>
<g id="banana">
  <g id="csiro" onfocusin="on_load(evt);start_animate_element(evt)">
	<path onclick="on_load(evt);start_animate_element(evt)" id="C" style="&st1;" d="M49.56,283.459c-3.763,1.857-7.258,2.647-11.505,2.647c-11.471,0-19.461-7.379-19.461-17.957c0-6.604,3.529-12.539,9.363-15.686c3.04-1.651,6.667-2.477,10.833-2.477c3.48,0,5.833,0.413,9.167,1.703c0.816,0.307,1.303,0.504,1.78,0.755
		l-0.005,7.458c-2.879-1.842-6.836-2.988-10.354-2.988c-7.157,0-12.107,4.836-12.107,11.131c0,6.347,4.902,11.084,11.862,11.084c3.236,0,7.01-1.187,10.049-3.096l0.358-0.327l0.02,7.751z"/>
	<path onclick="on_load(evt);start_animate_element(evt)" id="S" style="&st1;" d="M70.224,283.896l-0.014-7.27c1.806,1.117,2.868,1.623,4.316,2.133c2.327,0.821,3.939,0.933,6.139,0.479c1.115-0.23,2.874-1.196,2.874-2.937c0-3.322-3.236-3.997-7.586-6.396c-3.524-1.945-5.57-5.55-5.57-8.896
		c0-5.204,2.783-10.573,12.685-10.573c2.298,0,4.811,0.606,7.383,1.652l0.009,6.803c-3.127-1.517-5.116-2.052-7.678-2.052c-2.403,0-3.829,1.704-3.95,2.988c-0.102,1.073,0.046,2.878,2.779,4.292l3.247,1.819c4.371,2.392,7.003,4.941,7.003,9.744
		c0,5.623-4.882,10.46-11.851,10.46c-5.407,0-8.182-1.313-9.786-2.248z"/>
	<path onclick="on_load(evt);start_animate_element(evt)" id="I" style="&st1;" d="M122.317,285.642h-8.431v-35.191h8.431v35.191z"/>
	<path onclick="on_load(evt);start_animate_element(evt)" id="R" style="&st1;" d="M172.574,285.074l-0.882-1.96l-1.029-2.374l-0.882-1.961l-1.323-2.993c-0.983-1.919-2.58-5.018-4.867-6.48c1.125-0.488,1.875-0.975,2.955-1.982c1.819-1.696,2.843-4.18,2.843-6.759c0-3.302-1.716-6.553-4.363-8.359
		c-2.157-1.394-3.921-1.755-8.774-1.755h-2.411h-0.3h-10.132v35.191h8.431v-14.345h1.226c1.471,0,1.667,0,2.402,0.207c1.568,0.464,3.186,2.425,4.46,5.469l1.275,2.993l0.98,2.271l0.637,1.6l0.638,1.445l0.196,0.361h9.167l-0.245-0.568z M156.986,265.096
		l-1.029,0.051l-0.637,0.052h-3.481v-8.575h1.705h0.297h2.214c2.848,0,4.657,1.567,4.657,4.25c0,2.27-1.659,4.222-3.725,4.222z"/>
	<path onclick="on_load(evt);start_animate_element(evt)" id="O" style="&st1;" d="M220.909,268.098c0-10.16-8.126-18.016-18.61-18.103v-0.008c-0.029,0-0.058,0.003-0.087,0.004c-0.029,0-0.057-0.004-0.086-0.004v0.008c-10.531,0.086-18.61,7.943-18.61,18.103c0,10.057,8.078,17.913,18.466,18v0.008
		c0.03,0,0.058-0.004,0.088-0.004c0.029,0,0.057,0.004,0.085,0.004v-0.008c10.626-0.085,18.754-7.84,18.754-18z M202.316,279.154c-5.742-0.019-10.345-4.984-10.345-10.901c0-5.986,4.454-10.934,10.249-10.952c5.576,0.018,10.347,5.041,10.347,11.004
		c0,5.865-4.77,10.831-10.25,10.85z"/>
  </g><!--csiro-->
	<g id="logo"  onclick="animate('logo',evt)">
        <!--0-->
          <path style="&st0;" d="M183.535,18.938v86.479c0.266,0.631,0.512,1.264,0.715,1.89c1.95,6,2.55,9.9,0.45,14.55c-0.338,0.748-0.737,1.612-1.165,2.537v94.728c32.833-21.196,54.573-58.104,54.573-100.091c0-41.988-21.739-78.896-54.573-100.092z"/>
        <!--0-->
	<g style="&st0;">
          <!--6 (wa)-->
		<path d="M72.6,147.457c-3.9-0.3-3.79-3.4-3.79-5.1s0-44.2,0-44.2s-0.41-4.2,4.49-11.7c0.388-0.678,1.195-2.047,2.167-3.641V8.209C69.5,10.557,63.773,13.38,58.323,16.62v79.016c0.854-0.533,1.697-0.878,2.477-0.878c2.889,0,3.901,0.074,4.208,3.005v52.259
			c-0.428,1.695-2.328,2.629-6.607-1.24l-0.077,72.658c5.45,3.239,11.177,6.062,17.144,8.411v-82.409c-0.856,0.101-1.769,0.1-2.867,0.015z"/>
          <!--6 (wa)-->
          <!--3 (nt, sa)-->
		<path d="M134.45,142.857c-1.2-1.35-2.85-2.4-2.85-8.25c0,0,0-53.7,0-55.05s-0.3-3.15,2.55-3.6l3.77-0.297V1.47c-5.536-0.881-11.198-1.379-16.96-1.47v65.565c0.043,0.29,0.089,0.596,0.14,0.942c0.601,4.05,4.5,6.45,4.8,6.9c1.073,0.953,1.665,1.834,1.866,3.953
			v62.569c-0.066,1.878-1.051,3.261-3.216,1.578c-0.861-0.669-2.166-1.737-3.59-2.918v99.47c5.762-0.09,11.424-0.588,16.96-1.47v-89.563c-1.618-1.969-3.033-3.678-3.47-4.169z"/>
          <!--3 (nt, sa)-->
		<g>
          <!--7 (wa)-->
			<path d="M50,118.957c-4.2-5-1.113-13.719,0.8-15.9c0.67-0.735,2.002-2.244,3.747-4.112V18.955C21.728,40.154,0,77.053,0,119.03c0,41.976,21.728,78.876,54.547,100.075v-92.056c-1-2.806-2.48-5.63-4.547-8.091z"/>
          <!--7 (wa)-->
          <!--5 (nt,wa)-->
			<path d="M94.7,138.207c-2.022,0.674-4.603,1.455-4.998-1.874v-6.53c0.08-15.374,0.035-57.296,0.035-57.296c0-2.25,2.712-3,4.662-1.95c0.621,0.334,1.302,0.225,1.987-0.143V2.141C90.506,3.274,84.78,4.84,79.243,6.805V76.93c0.917-1.332,1.733-2.407,2.257-2.873
				c1.8-1.6,4.42-4.3,4.42,3.8c0,8.1,0.004,52.925,0.004,55.775c0,3.6,0.75,8.4-3.025,10.525c-1.493,0.84-2.631,1.564-3.657,2.074v85.024c5.538,1.965,11.264,3.53,17.144,4.664v-98.314c-0.616,0.231-1.192,0.438-1.687,0.603z"/>
          <!--5 (nt,wa)-->
          <!--4-->
			<path d="M113.3,132.207c-1.5-1.2-2.7-2.25-2.7-8.25s0-56.55,0-56.55c0-3.3,1.35-5.55,2.85-6.6c0.826-0.578,2.333-1.971,3.672-2.558V0c-5.762,0.092-11.424,0.591-16.96,1.474V66.34c0.029-0.044,0.06-0.09,0.088-0.133c1.35-2.1,3.6-4.8,4.65-4.95
				c1.05-0.15,1.944-0.15,1.944,3.75c0,3.9,0,61.5,0,64.35s-0.144,3.3-3.144,4.95c-1.114,0.613-2.332,1.204-3.538,1.745v100.533c5.536,0.883,11.198,1.381,16.96,1.473V135.388c-1.737-1.455-3.224-2.702-3.822-3.181z"/>
          <!--4-->
		</g>
  <!--1 (qld,nsw,act,vic)-->
		<path d="M176.75,94.332c0,0,1.525,1.919,3.009,4.183V16.604c-5.451-3.237-11.178-6.058-17.144-8.405v73.738c2.071,1.964,3.984,3.673,4.835,4.221c2.1,1.35,2.25,5.7,2.25,8.55v46.8c0,3.75,0.3,9-3.6,12.3c-0.909,0.769-2.139,1.416-3.485,1.884v6.461
			c0.113-0.031,0.228-0.06,0.335-0.095c1.35-0.45,3.975-0.675,3.9,1.8c-0.054,1.799-1.398,8.801-3.45,10.2c-0.249,0.169-0.514,0.296-0.785,0.403v55.4c5.966-2.347,11.693-5.168,17.144-8.405v-88.569c-1.035,2.549-1.712,4.705-1.809,5.771c-0.3,3.3-0.6,4.8-1.95,8.7
			c-1.35,3.9-2.55,1.5-2.55-0.6s0-46.65,0-51.9c0-4.785,3.3-0.525,3.3-0.525z"/>
   <!--1 (qld,nsw,act,vic)-->
   <!--2-->
		<path d="M158,174.057c-1.275-0.675-2.104-1.076-2.475-3.75c-0.375-2.7-0.9-3.825-1.8-5.475c-1.35-2.475,0.825-4.95,3.825-3.15c0.45,0.18,0.876,0.311,1.289,0.417v-5.649c-3.313,0.176-6.308-1.045-6.377-4.624l-0.012-76.319c0.177-2.585,1.371-2.973,2.85-1.05
			c0.519,0.675,1.89,2.128,3.539,3.79V6.795c-5.538-1.963-11.263-3.527-17.144-4.66v52.865c0.736,2.071,1.737,4.137,3.104,5.656c4.05,4.5,3.9,8.25,3.9,14.25v77.55c0,1.5-0.3,6.3-4.5,2.25c0,0-1.073-1.318-2.504-3.07v84.287c5.88-1.132,11.606-2.697,17.144-4.66
			v-56.85c-0.294-0.104-0.58-0.22-0.839-0.357z"/>
   <!--2-->
	</g>
	</g>
</g>
</svg>
