<?xml version="1.0" standalone="no"?>
<!DOCTYPE svg PUBLIC "-//W3C//DTD SVG 20001102//EN" 
  "http://www.w3.org/TR/2000/CR-SVG-20001102/DTD/svg-20001102.dtd">

<svg width="600" height="600">

<g style="fill:#aa7788; stroke:black; stroke-width:2; stroke-linejoin:round">

<path d="M 150 250 L 150 150 A 100 50 45 0 0 250 150 A 100 50 45 0 1 350 150
         L 350 250 A 100 50 -45 0 0 250 250 A 100 50 -45 0 1 150 250"/>
</g>

<g style="fill:#77aa88; stroke:black; stroke-width:2; stroke-linejoin:round">

<path d="M 150 450 L 150 350 A 50 50 0 0 0 250 350 A 50 50 0 0 1 350 350
         L 350 450 A 50 50 0 0 0 250 450 A 50 50 0 0 1 150 450"/>
</g>
</svg>
