<?xml version="1.0" standalone="no"?>
<!DOCTYPE svg PUBLIC "-//W3C//DTD SVG 20001102//EN" 
  "http://www.w3.org/TR/2000/CR-SVG-20001102/DTD/svg-20001102.dtd">

<svg width="600" height="600">

 <defs>
     <marker id="MyStartMarker" orient="45" refX="5" refY="5" viewBox="0 0 10 10"> 
      <rect width="10" height="10" style="fill:lime; stroke-width:1"/>
    </marker>
    <marker id="MyMidMarker" viewBox="-5 -5 10 10">
      <circle r="5" style="fill:red; stroke-width:1"/>
    </marker>
    <marker id="MyEndMarker" refX="-15" refY="0" viewBox="-15 -15 30 30" 
             markerWidth="6" markerHeight="6"> 
      <ellipse rx="15" ry="5" style="fill:blue; stroke-width:1"/>
    </marker>
    <marker id="Triangle"
		viewBox="0 0 10 10" refX="5" refY="5"
		markerWidth="4" markerHeight="4"
		orient="auto">
	<path id = "mypath" d="M 0 0 L 10 5 L 0 10 z" style="fill:black; stroke:red; stroke-width:2; stroke-dasharray:none"/>
    </marker>

  </defs>


  <title>Linking test</title>

  <g id="layer1" style="stroke:black; fill:none" >
    
      <a xlink:href="shapes.svg">
        <circle cx="300" cy="450" r="50" style="fill:red; stroke:navy; stroke-width:2; stroke-dasharray: 5 2" /> 
	  <line x1="100" x2="500" y1="500" y2="100" 
            style="stroke:rgb(255,0,0); stroke-width:8; stroke-dasharray: 5 5 10 5 15 5 10 5 " />
        <ellipse cx="190" cy="100" rx="50" ry="40" style="fill:red" transform="skewX(45)"/>
      </a> 

      <a xlink:href="paths.svg">
        <path d="M 100 100 L 200 200 L 270 150 L 400 200 l 50 50 l 25 75l 50 50 l 25 75" 
          style="marker-start: url(#MyStartMarker); 
               marker-mid: url(#MyMidMarker); 
               marker-end: url(#MyEndMarker); 
               stroke:navy; stroke-width:3" />
      </a>

      <a xlink:href="tiger.svg">
        <rect x="120" y="120" width="100" height="150" rx="10" ry="20" style="fill:blue; stroke:black; stroke-width:4" />
      </a>
  </g>

  <g id="layer2" style="stroke:black; fill:none" >
      <a xlink:href="rototext.svg">
         <ellipse cx="450" cy="200" rx="50" ry="100" style="fill:#197265; stroke:none"/>
      </a>

      <a xlink:href="picasso.svg">
         <polyline points="100 100 150 100 150 150 200 150 200 200 250 200 250 250 300 250 300 300 350 300 350 350 
                    400 350 400 400 450 400 450 450 500 450 500 500" 
            style="stroke:lime; stroke-width: 10; stroke-linejoin: round; stroke-linecap:round; stroke-opacity:0.5" />
      </a>

      <a xlink:href="lion.svg">
         <polygon points="50 100 100 50 500 50 550 100 550 500 500 550 100 550 50 500" 
            style="stroke:aqua; stroke-width: 15; stroke-linejoin:round" />
      </a>

	<a xlink:href="radial.svg">
         <image x="250" y="250" width="90" height="110" xlink:href="csiro.gif"/>
      </a>
  </g>
</svg>
