<?xml version="1.0" standalone="no"?>
<!DOCTYPE svg PUBLIC "-//W3C//DTD SVG 20001102//EN" 
  "http://www.w3.org/TR/2000/CR-SVG-20001102/DTD/svg-20001102.dtd">

<svg width="400" height="450">
  <g style="font-size:8" >
    <text style="font-size:18" x="20" y="400"> NSC Number: 3283</text>

    <line style="stroke:black;stroke-width:1" x1="111.12" y1="246.904" x2="139.653" y2="237.634"/>
    <line style="stroke:black;stroke-width:1" x1="111.12" y1="246.904" x2="104.883" y2="276.25"/>
    <line style="stroke:black;stroke-width:1" x1="139.653" y1="237.634" x2="122.019" y2="213.364"/>
    <line style="stroke:black;stroke-width:1" x1="139.653" y1="237.634" x2="163.923" y2="220"/>
    <line style="stroke:black;stroke-width:1" x1="139.653" y1="237.634" x2="148.923" y2="266.164"/>
    <line style="stroke:black;stroke-width:3" x1="104.883" y1="276.25" x2="127.179" y2="296.323"/>
    <line style="stroke:white;stroke-width:1" x1="104.883" y1="276.25" x2="127.179" y2="296.323"/>
    <line style="stroke:black;stroke-width:1" x1="104.883" y1="276.25" x2="76.353" y2="285.52"/>
    <line style="stroke:black;stroke-width:1" x1="163.923" y1="220" x2="188.193" y2="237.634"/>
    <line style="stroke:black;stroke-width:1" x1="163.923" y1="220" x2="163.923" y2="190"/>
    <line style="stroke:black;stroke-width:1" x1="148.923" y1="266.164" x2="178.923" y2="266.164"/>
    <line style="stroke:black;stroke-width:1" x1="127.179" y1="296.323" x2="120.939" y2="325.666"/>
    <line style="stroke:black;stroke-width:3" x1="76.353" y1="285.52" x2="70.113" y2="314.863"/>
    <line style="stroke:white;stroke-width:1" x1="76.353" y1="285.52" x2="70.113" y2="314.863"/>
    <line style="stroke:black;stroke-width:3" x1="163.923" y1="190" x2="137.943" y2="175"/>
    <line style="stroke:white;stroke-width:1" x1="163.923" y1="190" x2="137.943" y2="175"/>
    <line style="stroke:black;stroke-width:1" x1="163.923" y1="190" x2="189.903" y2="175"/>
    <line style="stroke:black;stroke-width:1" x1="120.939" y1="325.666" x2="143.235" y2="345.742"/>
    <line style="stroke:black;stroke-width:3" x1="120.939" y1="325.666" x2="92.409" y2="334.936"/>
    <line style="stroke:white;stroke-width:1" x1="120.939" y1="325.666" x2="92.409" y2="334.936"/>
    <line style="stroke:black;stroke-width:1" x1="137.943" y1="175" x2="137.943" y2="145"/>
    <line style="stroke:black;stroke-width:3" x1="189.903" y1="175" x2="189.903" y2="145"/>
    <line style="stroke:white;stroke-width:1" x1="189.903" y1="175" x2="189.903" y2="145"/>
    <line style="stroke:black;stroke-width:1" x1="92.409" y1="334.936" x2="86.172" y2="364.282"/>
    <line style="stroke:black;stroke-width:1" x1="137.943" y1="145" x2="111.963" y2="130"/>
    <line style="stroke:black;stroke-width:3" x1="137.943" y1="145" x2="163.923" y2="130"/>
    <line style="stroke:white;stroke-width:1" x1="137.943" y1="145" x2="163.923" y2="130"/>
    <line style="stroke:black;stroke-width:1" x1="111.963" y1="130" x2="111.963" y2="100"/>
    <line style="stroke:black;stroke-width:3" x1="111.963" y1="100" x2="85.98" y2="85"/>
    <line style="stroke:white;stroke-width:1" x1="111.963" y1="100" x2="85.98" y2="85"/>
    <line style="stroke:black;stroke-width:1" x1="111.963" y1="100" x2="137.943" y2="85"/>
    <line style="stroke:black;stroke-width:1" x1="85.98" y1="85" x2="85.98" y2="55"/>
    <line style="stroke:black;stroke-width:3" x1="137.943" y1="85" x2="137.943" y2="55"/>
    <line style="stroke:white;stroke-width:1" x1="137.943" y1="85" x2="137.943" y2="55"/>
    <line style="stroke:black;stroke-width:1" x1="85.98" y1="55" x2="60" y2="40"/>
    <line style="stroke:black;stroke-width:3" x1="85.98" y1="55" x2="111.963" y2="40"/>
    <line style="stroke:white;stroke-width:1" x1="85.98" y1="55" x2="111.963" y2="40"/>
    <line style="stroke:black;stroke-width:1" x1="111.963" y1="40" x2="111.963" y2="10"/>
    <line style="stroke:black;stroke-width:1" x1="188.193" y1="237.634" x2="178.923" y2="266.164"/>
    <line style="stroke:black;stroke-width:1" x1="70.113" y1="314.863" x2="92.409" y2="334.936"/>
    <line style="stroke:black;stroke-width:1" x1="189.903" y1="145" x2="163.923" y2="130"/>
    <line style="stroke:black;stroke-width:1" x1="137.943" y1="55" x2="111.963" y2="40"/>

    <circle style="stroke:none;fill:white" cx="139.653" cy="237.634" r="4.5"/>
    <text transform="translate(-2.7 3)" style="fill:blue" x="139.653" y="237.634">N</text>
    <circle style="stroke:none;fill:white" cx="143.235" cy="345.742" r="5"/>
    <text transform="translate(-3.8 3)" style="fill:green" x="143.235" y="345.742">Cl</text>
    <circle style="stroke:none;fill:white" cx="137.943" cy="145" r="4.5"/>
    <text transform="translate(-2.7 3)" style="fill:blue" x="137.943" y="145">N</text>
    <circle style="stroke:none;fill:white" cx="86.172" cy="364.282" r="5"/>
    <text transform="translate(-3.8 3)" style="fill:green" x="86.172" y="364.282">Cl</text>
    <circle style="stroke:none;fill:white" cx="60" cy="40" r="5"/>
    <text transform="translate(-3.8 3)" style="fill:green" x="60" y="40">Cl</text>
    <circle style="stroke:none;fill:white" cx="111.963" cy="10" r="5"/>
    <text transform="translate(-3.8 3)" style="fill:green" x="111.963" y="10">Cl</text>
  </g>
</svg>

