<?xml version="1.0" encoding="iso-8859-1"?>
<!DOCTYPE svg PUBLIC "-//W3C//DTD SVG 20001102//EN" 
  "http://www.w3.org/TR/2000/CR-SVG-20001102/DTD/svg-20001102.dtd"
[
	<!ENTITY st0 "fill:none;stroke:#000000;stroke-width:12.3999;stroke-miterlimit:4;">
	<!ENTITY st1 "fill-rule:nonzero;fill:#F29100;">
	<!ENTITY st2 "fill:none;stroke:#F29100;stroke-width:23.6188;stroke-miterlimit:4;">
	<!ENTITY st3 "fill:#FF0000;">
	<!ENTITY st4 "fill:#FFFFFF;">
	<!ENTITY st5 "fill:none;">
	<!ENTITY st6 "fill:#000000;">
	<!ENTITY st7 "fill-rule:nonzero;">
]>
<svg xml:space="preserve" width="471.959" height="394.316">
<g id="Layer_x0020_1">
	<path style="&st7;" d="M299.878,365.791V0H0v365.791h299.878z"/>
	<path style="&st2;" d="M236.933,117.11l-73.374,0.211l-19.08-67.983l-21.795,67.986l-70.662-0.205l55.722,41.356l-20.4,68.301l57.138-42.624l57.141,42.617l-19.049-68.298l54.36-41.361z"/>
	<path style="&st0;" d="M236.933,117.11l-73.374,0.211l-19.08-67.983l-21.795,67.986l-70.662-0.205l55.722,41.356l-20.4,68.301l57.138-42.624l57.141,42.617l-19.049-68.298l54.36-41.361z"/>
	<g style="&st1;">
		<path d="M73.021,342.646c-0.205,0-0.374,0.145-0.374,0.35v5.926h-0.959l-0.012-5.914c0-0.205-0.157-0.35-0.349-0.361h-0.145v-0.935l0.506,0.024v-2.445h0.959v2.445l1.168-0.024v0.935h-0.819h0.024z"/>
		<path d="M76.625,348.907v-6.012c0-0.156-0.133-0.301-0.29-0.301h-0.641c-0.169,0-0.302,0.145-0.302,0.301v6.012h-0.891v-9.629h0.891v2.397h2.151v7.231h-0.919z"/>
		<path d="M78.428,348.938v-7.228h0.891v7.228h-0.891z"/>
		<path d="M83.104,348.924h-2.097v-0.919h0.895c0.155,0,0.299-0.12,0.299-0.3v-1.63c0-0.168-0.144-0.324-0.299-0.324h-1.798v-4.059H82.2v0.903h-0.896c-0.167,0-0.298,0.121-0.298,0.303v1.646c0,0.158,0.131,0.303,0.298,0.303h1.799v4.076z"/>
		<path d="M87.836,342.646c-0.205,0-0.373,0.145-0.373,0.35v5.926h-0.96l-0.013-5.914c0-0.205-0.156-0.35-0.349-0.361h-0.145v-0.935l0.506,0.024v-2.445h0.96v2.445l1.168-0.024v0.935h-0.819h0.024z"/>
		<path d="M91.494,342.964v2.506c0,0.169-0.158,0.338-0.34,0.338h-0.655c-0.17,0-0.327-0.146-0.327-0.326l0.012-2.494c0-0.181,0.158-0.337,0.34-0.337h0.631c0.182,0,0.34,0.145,0.34,0.325v-0.012z M90.523,346.675h1.838v-4.98h-3.045v7.25h2.08v-0.923h-0.897
			c-0.17,0-0.327-0.146-0.327-0.328l0.012-0.691c0-0.17,0.158-0.327,0.34-0.327z"/>
		<path d="M95.371,342.922c0-0.181-0.133-0.326-0.302-0.326l-0.628-0.012c-0.182,0-0.326,0.145-0.326,0.325v4.812c0,0.181,0.133,0.338,0.302,0.338l0.906,0.012v0.855h-2.091v-7.245l3.043,0.012v1.796h-0.904v-0.566z"/>
		<path d="M99.004,348.907v-6.012c0-0.156-0.133-0.301-0.289-0.301h-0.641c-0.169,0-0.302,0.145-0.302,0.301v6.012h-0.892v-9.629h0.892v2.397h2.151v7.231h-0.92z"/>
		<path d="M102.932,348.907v-6.023c0-0.156-0.121-0.289-0.289-0.289h-0.913v6.313h-0.903v-7.231h2.553c0.254,0,0.472,0.193,0.472,0.436v6.796h-0.919z"/>
		<path d="M106.869,347.721c0,0.169-0.132,0.301-0.299,0.301h-0.598c-0.166,0-0.298-0.132-0.298-0.301v-4.831c0-0.156,0.132-0.289,0.298-0.289l0.598-0.024c0.154,0,0.286,0.145,0.286,0.313l0.013,4.831z M107.771,348.925v-7.23h-3v7.23h3z"/>
		<path d="M108.68,348.926v-9.637h0.903v9.637h-0.903z"/>
		<path d="M112.602,347.721c0,0.169-0.131,0.301-0.298,0.301h-0.597c-0.168,0-0.299-0.132-0.299-0.301v-4.831c0-0.156,0.131-0.289,0.299-0.289l0.597-0.024c0.155,0,0.286,0.145,0.286,0.313l0.012,4.831z M113.506,348.925v-7.23h-3.001v7.23h3.001z"/>
		<path d="M115.622,348.016c-0.168,0.012-0.288-0.133-0.288-0.302v-4.781c0-0.168,0.132-0.301,0.301-0.301l0.6-0.012c0.169,0,0.301,0.132,0.301,0.301v4.793c0,0.157-0.156,0.289-0.324,0.289l-0.589,0.013z M116.283,348.907c0.18-0.013,0.252,0.146,0.252,0.315v0.949
			c0,0.17-0.12,0.304-0.288,0.304h-0.913v0.903h2.104v-9.703h-3.012l-0.013,7.255l1.869-0.023z"/>
		<path d="M120.455,351.376l-0.012-2.145c0-0.169-0.146-0.289-0.303-0.289h-1.801v-7.231h0.903v6.011c0,0.181,0.134,0.302,0.304,0.302h0.605c0.158,0,0.303-0.121,0.303-0.302v-6.011h0.892v9.665h-0.892z"/>
		<path d="M126.473,342.922c0-0.181-0.133-0.326-0.303-0.326l-0.628-0.012c-0.182,0-0.326,0.145-0.326,0.325v4.812c0,0.181,0.133,0.338,0.302,0.338l0.906,0.012v0.855h-2.09v-7.245l3.042,0.012v1.796h-0.903v-0.566z"/>
		<path d="M130.115,347.721c0,0.169-0.131,0.301-0.298,0.301h-0.597c-0.168,0-0.299-0.132-0.299-0.301v-4.831c0-0.156,0.131-0.289,0.299-0.289l0.597-0.024c0.155,0,0.286,0.145,0.286,0.313l0.012,4.831z M131.02,348.925v-7.23h-3.001v7.23h3.001z"/>
		<path d="M132.36,348.925c-0.241,0-0.434-0.204-0.434-0.445v-6.781h0.903v6.022c0,0.169,0.133,0.301,0.302,0.301h0.615c0.169,0,0.302-0.132,0.302-0.301v-6.022h0.903v7.227h-2.592z"/>
		<path d="M135.854,348.926v-9.637h0.903v9.637h-0.903z"/>
		<path d="M139.759,347.716c0,0.156-0.119,0.289-0.285,0.289h-0.606c-0.154,0-0.285-0.121-0.285-0.289v-4.818c0-0.169,0.131-0.302,0.297-0.302h0.595c0.166,0,0.285,0.133,0.285,0.302v4.818z M140.678,348.924v-9.641h-0.919v2.12c0,0.157-0.119,0.289-0.285,0.289
			l-1.795,0.013v7.219h2.999z"/>
		<path d="M145.536,342.65c-0.205,0-0.35,0.145-0.35,0.349l-0.012,5.927h-0.956v-5.914c0-0.205-0.156-0.338-0.35-0.35l-0.145-0.012v-0.956h0.494v-2.382h2.148v0.959h-0.819c-0.204,0-0.349,0.18-0.361,0.371v1.052h1.181v0.956h-0.819h-0.012z"/>
		<path d="M148.492,345.186v2.548c0,0.169-0.145,0.325-0.325,0.325h-0.628c-0.169,0-0.302-0.156-0.302-0.337v-2.536c0-0.169,0.121-0.301,0.302-0.301h0.628c0.181,0,0.325,0.145,0.325,0.324v-0.023z M146.334,348.926c0.711,0,1.857,0,3.025,0l0.013-7.178h-2.122
			v0.867h0.917c0.181,0,0.325,0.157,0.325,0.338v0.726c0,0.182-0.145,0.339-0.325,0.339h-1.833v4.908z"/>
		<path d="M150.272,348.926v-9.637h0.903v9.637h-0.903z"/>
		<path d="M152.08,348.926v-9.637h0.902v9.637h-0.902z"/>
		<path d="M155.976,348.938v-7.228h0.892v7.228h-0.892z"/>
		<path d="M159.737,348.907v-6.023c0-0.156-0.12-0.289-0.288-0.289h-0.914v6.313h-0.903v-7.231h2.553c0.254,0,0.472,0.193,0.472,0.436v6.796h-0.919z"/>
		<path d="M163.42,342.646c-0.205,0-0.373,0.145-0.373,0.35v5.926h-0.959l-0.013-5.914c0-0.205-0.157-0.35-0.349-0.361h-0.146v-0.935l0.507,0.024v-2.445h0.959v2.445l1.168-0.024v0.935h-0.818h0.023z"/>
		<path d="M167.035,347.721c0,0.169-0.131,0.301-0.299,0.301h-0.597c-0.167,0-0.298-0.132-0.298-0.301v-4.831c0-0.156,0.131-0.289,0.298-0.289l0.597-0.024c0.155,0,0.287,0.145,0.287,0.313l0.012,4.831z M167.938,348.925v-7.23h-3.001v7.23h3.001z"/>
		<path d="M172.815,342.646c-0.205,0-0.374,0.145-0.374,0.35v5.926h-0.959l-0.012-5.914c0-0.205-0.156-0.35-0.35-0.361h-0.145v-0.935l0.506,0.024v-2.445h0.959v2.445l1.169-0.024v0.935h-0.819h0.024z"/>
		<path d="M176.42,348.907v-6.012c0-0.156-0.133-0.301-0.29-0.301h-0.64c-0.17,0-0.303,0.145-0.303,0.301v6.012h-0.891v-9.629h0.891v2.397h2.151v7.231h-0.919z"/>
		<path d="M180.4,342.964v2.506c0,0.169-0.158,0.338-0.34,0.338h-0.655c-0.17,0-0.327-0.146-0.327-0.326l0.012-2.494c0-0.181,0.158-0.337,0.34-0.337h0.631c0.182,0,0.34,0.145,0.34,0.325v-0.012z M179.43,346.675h1.838v-4.98h-3.045v7.25h2.08v-0.923h-0.897
			c-0.17,0-0.327-0.146-0.327-0.328l0.012-0.691c0-0.17,0.158-0.327,0.34-0.327z"/>
		<path d="M186.362,343.704v-0.818c0-0.157-0.106-0.29-0.285-0.29h-0.595c-0.166,0-0.297,0.133-0.297,0.29v6.034h-0.903v-7.228h2.999v2.012h-0.919z"/>
		<path d="M188.016,348.938v-7.228h0.892v7.228h-0.892z"/>
		<path d="M190.881,348.016c-0.168,0.012-0.288-0.133-0.288-0.302v-4.781c0-0.168,0.132-0.301,0.3-0.301l0.602-0.012c0.168,0,0.3,0.132,0.3,0.301v4.793c0,0.157-0.156,0.289-0.324,0.289l-0.589,0.013z M191.542,348.907c0.181-0.013,0.252,0.146,0.252,0.315v0.949
			c0,0.17-0.12,0.304-0.288,0.304h-0.913v0.903h2.104v-9.703h-3.012l-0.012,7.255l1.868-0.023z"/>
		<path d="M195.703,348.907v-6.012c0-0.156-0.133-0.301-0.289-0.301h-0.641c-0.169,0-0.302,0.145-0.302,0.301v6.012h-0.892v-9.629h0.892v2.397h2.151v7.231h-0.92z"/>
		<path d="M199.387,342.646c-0.205,0-0.373,0.145-0.373,0.35v5.926h-0.96l-0.012-5.914c0-0.205-0.157-0.35-0.35-0.361h-0.145v-0.935l0.506,0.024v-2.445h0.96v2.445l1.168-0.024v0.935h-0.818h0.023z"/>
		<path d="M205.1,348.907v-6.012c0-0.156-0.134-0.301-0.291-0.301h-0.64c-0.169,0-0.302,0.145-0.302,0.301v6.012h-0.892v-9.629h0.892v2.397h2.15v7.231H205.1z"/>
		<path d="M209.079,345.186v2.548c0,0.169-0.145,0.325-0.325,0.325h-0.628c-0.169,0-0.302-0.156-0.302-0.337v-2.536c0-0.169,0.121-0.301,0.302-0.301h0.628c0.181,0,0.325,0.145,0.325,0.324v-0.023z M206.921,348.926c0.71,0,1.856,0,3.025,0l0.013-7.178h-2.123v0.867
			h0.918c0.181,0,0.325,0.157,0.325,0.338v0.726c0,0.182-0.145,0.339-0.325,0.339h-1.833v4.908z"/>
		<path d="M212.965,348.907v-6.023c0-0.156-0.121-0.289-0.289-0.289h-0.913v6.313h-0.903v-7.231h2.553c0.254,0,0.472,0.193,0.472,0.436v6.796h-0.919z"/>
		<path d="M216.885,347.716c0,0.156-0.119,0.289-0.285,0.289h-0.606c-0.154,0-0.285-0.121-0.285-0.289v-4.818c0-0.169,0.131-0.302,0.298-0.302h0.594c0.166,0,0.285,0.133,0.285,0.302v4.818z M217.804,348.924v-9.641h-0.919v2.12c0,0.157-0.119,0.289-0.285,0.289
			l-1.795,0.013v7.219h2.999z"/>
		<path d="M221.756,348.924h-2.097v-0.919h0.896c0.154,0,0.298-0.12,0.298-0.3v-1.63c0-0.168-0.144-0.324-0.298-0.324h-1.799v-4.059h2.097v0.903h-0.896c-0.167,0-0.298,0.121-0.298,0.303v1.646c0,0.158,0.131,0.303,0.298,0.303h1.799v4.076z"/>
	</g>
	<g style="&st1;">
		<path d="M113.556,180.114v-7.049c0-0.215-0.198-0.413-0.446-0.413h-2.617v7.462h-1.262v-8.286c0-0.215-0.182-0.397-0.396-0.397h-1.251v8.684h-1.24v-9.94h3.501c0.349,0,0.647,0.281,0.647,0.612v0.625l3.678,0.017c0.332,0,0.615,0.281,0.615,0.612v8.074h-1.229z"/>
		<path d="M118.467,178.459c0,0.231-0.18,0.413-0.409,0.413h-0.818c-0.229,0-0.409-0.182-0.409-0.413v-6.638c0-0.215,0.18-0.397,0.409-0.397l0.818-0.033c0.213,0,0.393,0.199,0.393,0.431l0.017,6.638z M119.713,180.118v-9.939h-4.128v9.939h4.128z"/>
		<path d="M120.541,180.106l1.854-8.683h-1.24v-1.245h2.912l-1.87,8.682h2.207v1.246h-3.862z"/>
		<path d="M125.078,180.125v-9.928h1.229v9.928h-1.229z"/>
		<path d="M127.195,180.108v-12.203h1.245v12.203h-1.245z"/>
		<path d="M129.264,180.108v-12.203h1.245v12.203h-1.245z"/>
		<path d="M134.297,174.959v3.512c0,0.232-0.198,0.447-0.446,0.447h-0.861c-0.233,0-0.416-0.215-0.416-0.463v-3.496c0-0.231,0.167-0.414,0.416-0.414h0.861c0.248,0,0.446,0.199,0.446,0.447v-0.033z M131.328,180.104c0.979,0,2.556,0,4.16,0l0.016-9.862h-2.914v1.185
			h1.261c0.248,0,0.446,0.217,0.446,0.467v1.001c0,0.25-0.198,0.466-0.446,0.466h-2.522v6.744z"/>
		<path d="M137.567,178.863v1.25h-1.25v-1.25h1.25z"/>
		<path d="M141.647,178.459c0,0.231-0.181,0.413-0.409,0.413h-0.818c-0.229,0-0.408-0.182-0.408-0.413v-6.638c0-0.215,0.18-0.397,0.408-0.397l0.818-0.033c0.213,0,0.393,0.199,0.393,0.431l0.017,6.638z M142.893,180.118v-9.939h-4.127v9.939h4.127z"/>
		<path d="M146.611,172.053v-0.231c0-0.216-0.147-0.397-0.393-0.397H145.4c-0.229,0-0.408,0.182-0.408,0.397v8.289h-1.246v-9.932h4.127v1.874h-1.262z"/>
		<path d="M150.055,178.866c-0.232,0.017-0.398-0.182-0.398-0.413v-6.623c0-0.232,0.183-0.415,0.415-0.415h0.813c0.233,0,0.416,0.183,0.416,0.415l0.017,6.623c0,0.215-0.216,0.381-0.448,0.381l-0.814,0.032z M150.869,180.108c0.249,0,0.432,0.182,0.432,0.413
			l0.017,0.779c0,0.232-0.166,0.416-0.399,0.416h-1.262v1.245h2.89v-12.806h-4.124l-0.016,9.952h2.463z"/>
	</g>
	<g style="fill-rule:nonzero;fill:#FF0000;">
		<path d="M97.76,332.115v-52.841c0-1.376-1.356-2.646-2.959-2.646h-6.529c-1.726,0-3.083,1.271-3.083,2.646v52.841h-9.19v-74.962h9.19V268.6h22.009v63.516H97.76z"/>
		<path d="M135.365,299.226v22.515c0,1.487-1.479,2.868-3.329,2.868h-6.419c-1.731,0-3.092-1.381-3.092-2.975v-22.408c0-1.487,1.237-2.655,3.092-2.655h6.419c1.85,0,3.329,1.274,3.329,2.867v-0.212z M113.259,332.261c7.289,0,19.024,0,31.021,0l0.123-63.17h-21.753
			v7.653h9.387c1.85,0,3.329,1.364,3.329,2.938v6.295c0,1.573-1.479,2.938-3.329,2.938h-18.777v43.345z"/>
		<path d="M173.125,279.013c0-1.586-1.368-2.854-3.109-2.854l-6.467-0.105c-1.865,0-3.356,1.269-3.356,2.854v42.615c0,1.586,1.366,2.961,3.107,2.961l15.437,0.105v7.479H151.19v-63.496l31.23,0.105v15.305h-9.296v-4.97z"/>
		<path d="M210.569,332.047l0.057-4.418l-13.745-5.973l0.013,10.546l-9.163,0.047v-75.173h9.189v53.007l12.395-41.526h9.42L205.45,314.75l13.532,6.533v10.799l-8.413-0.035z"/>
	</g>
	<g style="fill-rule:nonzero;fill:#FFFFFF;">
           <defs>
            <clipPath id="clip1">
 		<path d="M236.748,117.036l-73.375,0.211l-19.079-67.982l-21.795,67.985l-70.662-0.204l55.722,41.356l-20.4,68.3l57.138-42.624l57.142,42.618l-19.051-68.299l54.361-41.361z"/>
             </clipPath>
           </defs>
		<path style="&st5;" d="M236.748,117.036l-73.375,0.211l-19.079-67.982l-21.795,67.985l-70.662-0.204l55.722,41.356l-20.4,68.3l57.138-42.624l57.142,42.618l-19.051-68.299l54.361-41.361z"/>
		<g style="clip-path:url(#clip1);">
			<path style="&st3;" d="M236.748,117.036l-73.375,0.211l-19.079-67.982l-21.795,67.985l-70.662-0.204l55.722,41.356l-20.4,68.3l57.138-42.624l57.142,42.618l-19.051-68.299l54.361-41.361z"/>
			<g>
				<path style="&st6;" d="M191.912,102.865c8.304,5.272,21.336,16.209,27.574,22.594c-1.526,0.219-3.15-0.932-4.873-1.14l-11.93-3.096c4.975,4.107,15.437,11.328,18.488,17.059c-3.726-1.276-11.558-5.601-15.437-5.93c3.409,3.007,10.513,8.704,12.755,12.345
					c-0.266,0.13-0.078,0.446-0.117,0.67c-2.924-1.609-8.535-4.387-11.749-4.653c3.33,3.453,7.96,8.669,9.325,13.143c-2.889-1.887-10.133-5.702-13.3-6.854c0.731,1.766,2.339,3.065,3.388,4.828c1.449,2.438,4.856,5.198,5.009,8.106
					c-2.536-2.353-5.673-4.421-8.819-6.069c1.42,2.928,4.008,5.344,4.733,8.837c-2.071-2.001-5.972-3.021-8.625-3.933l0.321,0.308c0.228,0.188,3.229,2.307,5.271,4.68c-1.805-0.104-0.461-0.33-2.768,0.197l-1.252,0.066c3.613,1.888,9.164,4.863,12.578,7.05
					c-2.001-0.188-4.657-0.275-6.898,0.05c4.552,1.885,9.348,3.31,13.42,6.222c-2.307,0.164-5.012,0.191-7.095,1.168c4.391,1.178,8.738,2.524,12.474,5.351c-2.884-0.182-6.663-0.519-9.504,0.678c4.477,0.84,8.633,2.587,12.419,5.354
					c-2.602-0.091-6.259-0.271-8.966,0.474c-0.322,0.134-1.225-0.134-1.574,0.389c5.022,1.519,10.128,2.646,14.609,5.86c-1.889-0.142-4.459,0.207-6.715,0.313l-0.256,0.295c5.4,1.382,10.831,2.43,15.873,4.997c-2.104,0.701-4.532,0.709-6.51,1.623
					c4.352,1.401,8.695,2.693,12.445,5.738c-2.77-0.134-5.925-0.239-8.91-0.303l-0.201,0.29c4.415,1.508,8.566,3.973,12.277,7.241c-2.53,0.126-5.238-0.675-7.957-0.095c4.48,1.668,9.032,3.552,12.96,6.751c-2.88-0.126-5.897-0.629-9.021-0.295l0.02,0.274
					c6.103,2.712,12.427,4.69,17.846,9.439c-2.821-0.075-6.243-0.052-9.394-0.104l-0.256,0.294c4.622,2.873,9.598,5.279,13.541,9.471l-9.908-1.115l0.016,0.22c4.207,2.46,8.947,3.89,12.463,7.504c-3.006-0.338-6.42-0.205-9.682-0.249l0.02,0.275
					c5.416,2.375,10.771,5.472,15.189,10.126c-2.778-0.244-5.518-1.484-8.369-1.999c-1.28-0.129-2.685-0.471-3.894-0.385c4.015,2.861,8.676,6.283,11.509,10.389c-0.079,0.447,0.215,0.702,0.353,1.079c-2.771-0.907-5.866-1.735-8.798-2.575
					c3.395,2.685,7.805,5.683,10.614,9.458c-1.942-0.138-3.7-0.785-5.643-0.923c0.003,0.828,0.898,0.212,1.373,0.675c3.692,2.222,7.519,3.992,10.928,6.896c-2.115-0.236-4.783-0.487-7.134-0.154c4.309,1.57,8.797,2.575,13.16,4.142
					c-1.938,0.69-4.359,0.808-6.408,1.506c3.826,0.224,7.598,0.452,11.247,1.296c-2.107,1.421-4.979,1.404-6.853,3.029l6.558,0.581c-0.636,1.149-1.609,2.213-2.41,3.375c2.362-0.169,5.121-0.974,7.323-1.075c-0.526,1.142-1.774,2.225-2.237,3.473
					c2.645-0.078,5.223-1.09,7.966-1.342l-1.405,2.751c2.032-0.145,4.136-0.847,6.333-1.004l-0.918,2.605c13.439,1.857,27.633,1.895,41.646,0.178l31.789-4.09c27.594-4.066,53.18-12.296,75.752-26.385c5.016-4.775,12.115-8.981,14.266-15.981
					c-1.716,11.553-9.816,21.075-17.708,30.418c-17.111,17.896-38.608,26.938-60.438,35.176c-8.641,4.261-18.106,7.034-27.398,9.906l-29.871,8.535c-14.998,4.162-31.181,3.328-46.241,1.973l-8.217-1.402c1.008,4.843,4.976,8.591,6.901,13.146l-1.854,12.722
					l5.285,5.2l0.475,5.102c-1.111,1.459-1.355,3.465-2.426,4.7c-1.386-1.613-1.487-5.36-4.477-4.705l-0.193,0.4c0.051,3.033,0.78,6.294,0.207,9.096l-2.959,2.641l-17.686-1.003l-13.381,3.605c-5.313-0.946-12.082,0.917-15.193-4.77
					c-1.088-0.53-2.197,0.156-3.297,0.235c-1.173,0.58-2.221,1.373-3.465,1.737l-0.047-0.659l2.963-6.45c2.033-0.146,1.213-2.351,1.621-3.595c1.578-0.333,2.669-2.067,4.533-1.482l3.692-3.963c3.544,0.133,7.083,1.759,10.63,0.401
					c1.193-1.079,4.309-0.749,3.575-3.292l1.876-1.569c-0.055-1.543-0.012-3.258,1.594-3.979l0.357-0.411c-0.883-6.177-3.841-11.267-5.947-16.804c-5.08-10.074-14.316-18.029-21.689-26.945c-10.975-2.144-21.326-6.375-31.168-11.968
					c-0.871,10.995-6.837,20.256-11.107,30.058c-0.334,2.287,0.133,4.96,0.234,7.161c-2.096,5.45-4.815,10.669-7.48,15.884c-0.032,3.426,1.263,6.094,2.718,8.696l-0.891,3.763l-5.542,4.371c-0.234-1.751,0.452-3.732,0.421-5.718c-1.083-0.475-2.127-0.4-2.358,0.997
					c-0.307,2.672-3.799,5.571-0.746,8.114c0.372,3.673-0.104,7.075-0.127,10.61l-1.672,1.334c-4.544-0.228-8.955-0.907-13.455-1.304c-6.585,1.353-13.209,2.93-20.014,3.525l-5.435-1.876l-1.974-3.669l-3.158,0.611c-1.15,0.91-2.166,2.143-3.383,2.892
					c0.572-2.028-0.486-5.267,2.359-6.408l0.459-0.529c-2.814-1.511-4.364,1.526-6.443,2.558c0.004-1.491,0.325-3.171,0.604-4.681l2.763-2.296c-0.4-4.058,4.379-4.398,6.083-7.611c2.394-2.049,4.944-0.354,7.326,0.526c2.629-0.298,5.521-0.008,7.569-1.479
					c-0.16-1.479,0.201-2.609,1.461-3.528l0.023-1.989c4.525-6.23,8.025-12.886,7.23-20.945c-0.376-10.686,0.037-21.15,1.867-31.109c1.275-6.883,2.324-13.86,3.824-20.703c-0.537-2.889-1.322-6.146-0.757-9.057c3.077-3.312,6.672-5.556,10.011-8.279
					c-3.754-6.966-7.348-13.998-10.039-21.536l-3.468-8.366c0.598-10.976,0.756-22.692-1.256-33.869c-0.679-0.228-5.995-1.804-6.808-1.805c-1.302,2.064-2.176,4.446-1.294,7.05c1.038-0.074,2.068-1.075,3.201-1.445c-0.643,1.553-1.697,3.02-1.327,4.965
					c0.795-0.231,1.17-1.476,1.834-1.929l-0.272,4.311c-1.472,1.322-3.609,1.416-5.69,1.507l0.758,3.309c1.137-0.313,2.168-1.314,3.206-2.199c0.429,1.129-0.425,2.175-0.64,3.233l1.36-0.428c-0.228,1.697-1.405,3.853-2.226,5.36l-3.255,1.508l-6.872-2.873
					c-2.023-3.16-2.645-7.001-3.662-10.696c1.038-2.51,2.971-4.677,4.488-6.987l-0.865-3.997l-3.853-3.61c1.097-2.513-0.098-7.065,4.266-6.855l15.882-0.052c0.514-1.307-0.271-3.018,0.248-4.27c1.268-4.673,1.232-9.806,2.948-14.4
					c-3.437-6.381-1.63-17.315-10.425-21.701c-5.92-3.016-6.596-4.68-13.397-3.383c-3.675,0.7-11.702,3.472-15.562,2.646c-3.612-2-5.366-2.88-8.568-5.296c-0.445-1.402-3.448-1.625-3.828-3.418c1.535-0.109,5.967-1.32,6.699-3.41l1.199-0.251l3.588,2.028l0.71-2.905
					c1.37,0.674,1.619,0.812,3.005,1.704c0.402-1.296,0.438-2.319,0.668-3.713c1.147,0.635,2.01-0.385,3.313,0.129l0.706-1.443c1.088,0.583,3.168,1.357,4.339,1.85c0.493-0.807-0.082-1.922,0.188-2.768c1.299,0.458,2.41,1.37,3.71,1.828
					c0.282-0.681,1.005-2.457,1.06-3.231c0.686,0.337,1.936,0.954,2.945,1.213c0.457-0.528-2.467-0.75-2.178-1.321l2.627,0.898l0.352-2.779l3.411,0.95c0.069-1.835-0.184,3.593,0.03,1.267c-0.662-0.101-1.083-1.474-2.3-1.612l-1.408,4.725
					c-0.424,0.03-3.003-3.489-2.665-2.306l-0.436,1.476c-0.066,0.204-0.504,0.857-0.8,3.568c-2.251-1.324-1.651-1.116-3.872-2.603c-0.396,2.256-0.252,2.146-0.108,3.362l-0.47-0.06c-1.729-1.332-2.955-1.085-4.82-2.474c-0.173,0.986,0.35,2.636-0.015,3.514
					l-3.456-1.519c-0.33,1.362-0.012,2.087-0.213,3.411l-3.733-3.252c-0.938,1.346-0.169,3.265-0.452,4.974c-1.459-1.075-3-3.022-4.314-4.39c-0.243,1.722,0.916,3.465,0.361,5.088c-1.24-0.338-2.775-0.828-3.97-1.352c-0.407,1.125,2.69,1.518,2.343,2.639
					c-5.351,1.157-6.736,1.002-8.342-1.313c1.26,1.748-2.452-6.847-4.021-10.083l-0.126-1.756c1.473-4.414,1.054-11.949,1.808-13.038c4.904-6.734,22.802-7.92,30.844-16.794c-1.413-4.363,1.459-7.988,4.393-10.749c4.409-3.213,10.541-1.795,15.271-0.509
					c5.368-1.137,10.334-3.057,15.559-4.589c11.636-1.271,23.173,6.945,23.173,6.945z"/>
				<path style="&st3;" d="M157.807,106.846l3.869,1.405c0.457-0.902-0.705-1.747-1.17-2.583c-0.334-0.614-1.285-0.952-1.512-1.689c4.985-0.819,9.683-3.241,15.014-2.463c5.698,0.838,9.029,2.932,12.324,5.436c1.66,0.873,2.47,2.122,4.086,3.163
					c1.978,1.714,2.855,5.144,3.35,5.797c-2.859-1.184-5.725-0.98-7.667-1.601c7.313,4.38,8.647,13.042,6.687,20.287l0.121,0.157c2.431-1.44,3.124-4.079,3.785-6.384c0.494,1.507,0.576,3.429,0.916,5.111c0.775-0.716,1.197-1.737,1.629-2.649
					c0.876,7.648-2.908,13.907-7.553,19.981c-3.113,4.07,3.038,6.706,1.633,11.803l-7.382-0.352c-0.951-0.338-0.653-0.214-0.653-0.214c1.875,3.591,11.677,6.248,13.57,8.298c-0.521,0.424-9.142-2.091-12.294-2.591l13.793,8.155c-0.918,0.286-4.445,0.179-6.467-0.091
					c2.056,1.73,8.903,3.917,10.813,5.934l-6.301-0.734l10.608,7.751c-0.095,4.094,1.04,5.389,4.36,7.802c5.701,4.839,12.484,7.834,17.001,13.862c3.115,5.741,5.646,11.8,9.345,17.224c-4.352-0.629-8.459-2.489-13.231-1.266
					c-13.196,4.642-23.353,7.795-30.063,18.213c-3.152,3.041-4.992,6.65-8.478,8.887l-11.063,15.2l-0.428,0.97c-3.951-6.62-0.994-18.842-1.433-27.314c-0.129-0.483-3.066,4.444-3.349,4.354c-1.34,6.028-2.345,8.373-1.95,1.626l2.335-13.396l-4.572,6.914
					c-0.836,1.439-1.459,1.336-2.512,2.847c-2.322-1.602-0.116-4.187-0.167-6.447c0.75-3.422,2.782-2.563,4.791-6.916l6.503-9.314l-10.193,4.218c0.569-2.856-0.014,0.995,1.076-2.389l8.766-11.671l-11.951,4.921c-0.047-2.979,0.164,0.506,0.91-2.197
					c1.027-1.067,3.826-0.549,3.665-2.801l1.06-1.401c0.922-3.323,2.17-6.726,2.088-10.198l-1.521-4.309c-1.734-4.184-4.916-2.355-7.514-3.164c0.672-4.521,2.297-8.833,1.963-13.502c-1.898-3.398-4.715-9.156-4.311-12.432l-2.007-2.93
					c2.653,0.622,5.336,1.648,7.399,3.763c0.606-1.261-0.37-2.757-0.86-3.939c-1.388-2.394-4.145-3.646-6.328-4.998l4.553-2.006c2.274-3.873,6.626-7.083,6.71-11.61l-1.076,0.366c-4.133,4.643-10.025,8.428-15.952,8.74c4.032-0.367-16.878-2.611-15.659-4.346
					c-2.2,3.131-8.902,4.491-13.795,6.162c-2.258-0.775-3.24-0.542-4.943-2.018c0.717-0.768,1.828-1.397,2.9-1.805c6.428-1.78,21.619-4.947,24.854-11.149c0.635,2.629-1.849,4.817-4.622,7.081l6.004-0.865c10.536-4.854,9.199-13.026,6.824-20.789l-0.757,6.499
					l-2.046,3.559c-3.988-6.924-1.923-6.076,5.922-15.511l-5.95,2.271c-2.71,2.156-7.165,5.887-11.119,8.482c-10.647,6.907-15.91,11.476-29.473,12.504l-4.185,0.936c-3.017-7.551,2.678-14.584,1.018-3.986c2.196-2.643,4.348-5.088,3.885-6.454
					c0.771-1.151-3.245-3.983-2.912-5.286c3.889-3.915,20.823-6.129,29.961-15.103c0.279,1.487-4.218,5.378-4.992,6.708c9.127,0.019,14.49-2.752,15.442-5.648c0.198-0.479-0.067-2.611-1.044-3.296c-1.322-0.659-2.612-1.669-4.129-1.793
					c2.357-1.907,5.377,0.603,7.486,1.728c1.648,2.72-0.867,5.78-1.173,8.005c2.221-0.564,5.198-4.407,5.549-6.81c3.388,0.338,6.485-0.115,9.073-2.039c-2.295-0.474-4.672-1.29-7.078-1.698c-6.296-1.29-12.945-7.541-19.258-2.568l2.926-3.688
					c5.925-0.655,11.1,1.991,16.525,3.285z"/>
				<path style="&st6;" d="M178.564,109.465c1.701,1.907,3.403,3.815,3.818,6.395l-0.374,0.433c-1.138-1.311-2.839-2.406-4.4-3.165c0.021,2.724-1.76,5.402-4.158,6.732l-0.403,0.029c0.49-2.876,0.124-6.387-1.046-8.971c-1.846-1.491-4.265-2.072-5.825-3.643
					c3.877-0.914,7.581-0.192,10.914,1.019l1.475,1.171z"/>
				<path d="M139.604,117.75c1.578-2.162,3.837-3.907,6.722-3.684c-0.011,2.656-3.713,4.233-6.722,3.684z"/>
				<path style="&st6;" d="M162.655,117.922c2.505,0.169,4.854,0.581,7.215,1.167c-1.034,0.943-2.345,1.269-3.325,2.15c3.094,1.112,6.332,1.81,9.047,4.108l-0.557,0.33c-4.997-0.978-10.901-0.847-16.098,0.278l-0.305-0.21l2.979-5.373l-4.647-0.943
					c2.447-2.263,5.246-4.491,8.48-5.476c-0.486,1.311-1.842,2.624-2.79,3.968z"/>
				<path style="&st6;" d="M144.57,123.419c-2.46,0.465-5.18,0.543-7.527,0.131c3.86-1.957,8.813-1.614,11.875-5.021c-0.569,1.779-1.814,4.651-4.348,4.891z"/>
				<path style="&st6;" d="M181.508,136.753c-0.944,3.024,2.331,6.676-0.253,9.469c-2.196,2.533-4.887,4.639-7.479,6.505l0.223-0.943c2.304-2.657,4.413-5.591,5.464-8.738c-2.715,0.947-5.578,2.253-8.678,2.706c3.462-5.117,9.837-10.036,7.369-16.991
					c-0.14-1.149-1.709-2.023-1.322-3.095c3.671,2.695,5.232,6.7,4.676,11.088z"/>
				<path d="M133.596,141.046c0.346,0.584,0.225,1.445,0.338,2.168c-0.758-0.372-1.303-1.186-2.056-1.497c0.212-0.441,1.186-0.45,1.718-0.671z"/>
				<path d="M129.199,145.583l-1.565-1.471c0.346-0.269,0.805-0.666,1.423-0.527l0.143,1.998z"/>
				<path d="M125.549,147.214c-0.363,0.025-1.213-1.634-1.576-1.607l1.225-0.718c0.424-0.03,0.209,2.03,0.352,2.325z"/>
				<path d="M121.773,147.991l0.401,0.945c-0.856-0.061-1.306-1.672-1.825-2.122c1.426-0.284,1.475-0.668,1.424,1.177z"/>
				<path d="M117.732,150.209l-1.552-2.553l1.422-0.329l0.13,2.882z"/>
				<path d="M113.814,149.796l-1.767-1.295c1.763-0.688,1.86-0.944,1.767,1.295z"/>
				<path d="M109.571,148.789c-0.251,0.748-0.005,1.644,0.052,2.432c-0.42-0.762-1.372-1.303-1.497-2.207c0.402-0.333,0.961-0.19,1.445-0.225z"/>
				<path style="&st6;" d="M162.521,177.005c-0.553,1.031-0.567,2.284-1.12,3.315c-1.346-2.773-1.22-6.122,0.479-8.644c2.985-1.309,5.862-2.662,8.43-4.724c-1.051,3.57-4.525,7.523-7.789,10.052z"/>
				<path style="&st6;" d="M167.56,205.978l-0.309-8.205c3.854-2.484,7.958-4.544,11.479-7.831c-2.743,5.661-6.421,11.391-11.17,16.036z"/>
				<path style="&st6;" d="M165.842,199.137c-0.282,3.002-0.393,6.102-1.641,8.73c-3.818,0.659-13.02-1.883-16.213,0.49l-0.52,0.037c-1.376,2.648-1.673,5.801-2.168,8.619c-0.972-3.062,0.125-7.198-3.418-8.917l0.379-1.998l16.359-0.594
					c3.658-1.365,1.732-10.56,7.221-6.368z"/>
				<path style="&st6;" d="M226.789,210.582c1.396,2.551,2.311,5.302,3.496,7.978l-0.385,0.028c-4.332-4.992-9.849-8.795-14.859-13.242l-5.198-7.856c5.757,4.063,11.379,8.575,16.946,13.093z"/>
				<path style="&st6;" d="M188.492,200.835c2.82,4.713,6.921,8.782,8.572,14.131c7.722,6.849,16.994,9.113,26.356,11.097c0.103-0.118,0.142-0.342,0.365-0.303l0.294,0.255l-0.549,0.04l0.02,0.274c-8.006,1.564-16.646,1.188-23.176-3.648
					c-2.354-1.268-4.395-3.552-7.467-2.504l-0.945-0.099c0.672-6.839-1.02-13.511-3.746-19.224l0.275-0.02z"/>
				<path style="&st3;" d="M143.924,226.968l0.713,4.298c-1.768-2.02-3.819-3.96-3.448-6.886c0.7,0.878,1.38,2.279,2.735,2.588z"/>
				<path style="&st3;" d="M242.424,236.247c3.111,1.821,3.358,5.282,4.293,8.308c1.219,13.221-1.043,25.64-9.881,35.656c-10.224,7.632-22.585,10.832-35.707,12.651l-11.446,1.313l-0.357,0.412c2.433,1.594,5.133,2.284,7.793,3.199
					c-4.022,1.667-8.107,3.229-12.255,4.684c3.045,1.66,6.635,2.453,10.391,2.462c0.622,11.054-7.069,19.333-10.01,29.205c-0.738,2.813-0.4,5.992-0.688,8.939c-2.665,4.441-4.651,9.111-6.523,13.827c-0.455,2.131,1.723,4.791-0.896,6.027
					c0.376,0.636,0.542,1.397,0.918,2.033c-2.821-0.849-4.238,1.737-5.423,3.699l-2.379,6.134l0.965,5.783l-1.284,4.454c-1.773-0.095-3.685-0.565-5.485-1.044c-7.084,2.105-14.206,4.437-22.089,4.612c-0.687-1.111-1.374-2.222-2.487-3.136
					c2.44-1.389,5.686-1.565,8.437-2.479c2.366-1.659,4.485-3.688,6.655-5.775c-1.377,0.043-3.279,0.455-4.63,0.109c1.071-1.235,3.352-1.012,3.865-3.092l5.184,3.771c2.747-0.195,5.407,0.719,8.048-0.188c-3.743-2.162-7.365-4.94-10.629-8.132
					c4.635-0.054,7.737,5.522,12.91,4.491l0.102-0.118c-3.638-2.998-6.761-6.53-9.982-9.89c1.791-4.324,3.977-8.511,4.067-13.432c-1.761-8.433,0.276-16.253,0.697-24.29c1.104-11.619,4.526-22.465,5.634-34.028l-0.219-4.623l2.759-2.35
					c0.385,0.745,0.554,1.562,1.095,2.186c3.553-9.033,10.217-18.563,18.496-24.786c-1.216,3.842-3.72,7.443-6.656,10.413c11.597-3.863,17.41-19.131,28.327-24.769c5.608-3.438,11.589-6.293,18.099-7.917c-1.923-0.636-4.156-0.974-6.321-1.15
					c3.323-2.17,7.519-2.966,11.987-3.009l0.26-0.239c-3.402-1.248-7.02-1.652-10.964-1.206c2.971-0.93,5.737-2.396,9.124-2.142l6.207,3.423z"/>
				<path style="&st3;" d="M270.017,287.121c7.13,6.283,14.341,14.493,23.327,16.613c8.601,3.693,17.731,5.527,27.33,6.167c31.726-1.103,62.703-5.741,92.023-12.691c12.162-3.684,23.809-8.38,35.004-13.981c-8.664,7.022-17.926,15.745-28.6,20.15
					c-18.045,8.687-36.351,16.783-56.086,21.891l-27.201,7.24c-12.361,1.655-25.154,1.904-37.06,0.655c-19.078-1.952-37.015-7.244-53.863-15.87c-7.966-5.616-17.47-6.485-26.165-9.95l-4.783-2.033c1.728-2.111,4.399-3.351,6.676-4.729
					c10.736-5.846,25.021-6.091,31.688-18.659l-0.294-0.255c-3.049,2.149-6.479,3.609-9.984,4.798c8.926-8.809,11.646-20.212,11.051-32.427c4.9,11.411,7.881,23.788,16.937,33.081z"/>
				<path style="&st6;" d="M241.946,261.294c-2.006,7.487-5.872,17.536-14.588,19.979l-5.313,2.146c2.527-2.5,5.985-5.894,7.85-9.174c5.195-2.248,9.054-8.542,12.052-12.952z"/>
				<path style="&st6;" d="M210.56,283.41c-2.021,1.083-4.399,1.805-6.919,2.095c-3.825,0.549-7.848,0.67-11.618,0.442c-2.37,1.604-4.415,3.904-6.723,5.614c-3.163,2.104-6.299,4.591-10.466,4.226c3.936-4.422,7.959-9.182,12.648-12.332
					c7.746-2.099,15.17,0.574,23.077-0.045z"/>
				<path style="&st6;" d="M259.952,313.772c8.46,8.674,12.407,5.428,22.716,9.055c13.683,3.718,28.374,4.548,43.147,4.984c14.417-0.696,28.058-3.768,41.533-6.827c-9.688,4.28-20.179,7.402-31.134,9.398c-10.878,1.55-22.897,3.345-33.229,0.935
					c-19.687-2.737-38.969-6.773-55.829-17.884c-4.336-1.955-6.158-4.647-12.235-5.332l-4.709-7.384c7.663,7.137,23.262,12.799,29.74,13.055z"/>
				<path style="&st6;" d="M286.304,310.542c-1.433,0.819-3.524,0.914-5,1.902c4.415,0.734,9.101,0.621,13.703,0.9c-0.824,0.832-2.319,0.772-3.375,1.455c2.166,0.95,4.909,0.699,7.361,1.021c4.54,0.173,9.116,0.067,13.554,0.358c-1.938,0.69-4.073,0.953-6.141,1.377
					l3.343,0.424l29.285-0.487l8.853-0.521l-0.408,0.472c-25.318,5.008-53.348,7.614-74.744-5.934l-7.236-4.675c7.071,0.821,14.006,2.038,20.806,3.707z"/>
				<path style="&st6;" d="M181.979,341.77c-2.206,4.686-4.239,9.469-7.136,13.762c-0.553-4.654-1.706-9.211-2.78-13.44c1.318,0.679,2.539,1.53,3.767,2.492c2.155-4.627,3.273-9.842,5.817-14.44l0.863-3.374c0.012,4.803-0.166,10.061-0.531,15.001z"/>
				<path style="&st3;" d="M275.332,337.652c0.373,1.354,1.946,2.511,1.125,4.171c1.158,1.519,1.904,3.453,2.857,5.208l4.343,6.702c1.554,3.202-5.879,4.284-1.386,6.891l-1.021,7.361l3.162,1.763c-1.244,1.138-3.115,1.216-4.19,2.396
					c0.188,3.41,0.769,6.902-0.633,9.708c-4.289,0.251-8.248-0.295-12.399-0.44c-8.453,1.486-18.633,5.083-26.656,0.962c-0.416-0.411-1.158-0.745-1.311-1.342l2.688-1.793c3.578,0.628,7.494,0.569,11.137,0.531l-2.413-2.092c3.366-0.793,6.294-2.327,9.41-3.543
					c1.616,0.989,3.187,2.092,4.85,2.967l0.255-0.294l-1.573-3.477c2.99,1.664,6.895,2.214,10.653,2.277l0.256-0.295l-6.298-4.686c3.128-0.278,6.267-1.165,8.924-2.624c-1.487-0.723-3.56-0.354-5.195-0.845l-5.588-1.699l-0.667-3.929
					c2.312,0.664,4.54,2.492,7.106,1.315c-2.303-2.1-5.713-3.457-7.188-6.334c-1.674-6.451-2.115-12.41-4.802-18.348l-9.604-8.12c8.856,3.398,15.04,5.164,24.159,7.606z"/>
				<path style="&st6;" d="M167.67,349.416c1.621,4.909,2.079,11.337-0.189,15.916c-0.471,1.139-1.056,2.229-1.358,3.41l-0.274,0.02l-1.848-4.23c1.637-4.921,3.438-9.853,3.67-15.115z"/>
				<path style="&st3;" d="M139.976,377.619l-4.513-0.562c1.396-0.541,3.288-0.345,4.513,0.562z"/>
				<path style="&st3;" d="M138.37,380.66c-1.205,1.688-3.618,1.142-5.502,1.056c1.539-0.883,3.595-1.472,5.502-1.056z"/>
				<path style="&st6;" d="M143.69,118.023c0.974-0.252,1.538-1.326,1.261-2.397c-0.278-1.071-1.293-1.735-2.268-1.482c-0.975,0.252-1.538,1.326-1.26,2.397c0.277,1.072,1.293,1.735,2.267,1.482z"/>
				<path style="&st6;" d="M164.479,197.451l-3.863-6.679c3.854-2.483,11.514-6.069,15.033-9.357c-2.743,5.662-6.421,11.391-11.17,16.036z"/>
				<path style="&st6;" d="M163.539,186.709l-2.816-4.868c2.809-1.811,8.393-4.426,10.959-6.822c-2,4.128-4.681,8.304-8.143,11.69z"/>
				<path style="&st6;" d="M167.006,214.257c-0.668,1.248-3.349,6.363-4.974,3.407c-1.628-3.356,2.493-8.055,4.548-11.105c4.531-1.986,8.021-3.966,10.199-5.716c-1.27,4.321-5.824,10.354-9.773,13.414z"/>
			</g>
		</g>
	</g>
</g><!-- Layer_x0020_1 -->
</svg>
