<?xml version="1.0" standalone="no"?>
<!DOCTYPE svg PUBLIC "-//W3C//DTD SVG 20001102//EN" 
  "http://www.w3.org/TR/2000/CR-SVG-20001102/DTD/svg-20001102.dtd">

<svg width="600" height="600" fill="none">
  <defs>
    <marker id="MyStartMarker" orient="45" refX="5" refY="5" viewBox="0 0 10 10">
      <rect width="10" height="10" fill="lime" stroke-width="1"/>
    </marker>
    <marker id="MyMidMarker" viewBox="-5 -5 10 10">
      <circle r="5" fill="red" stroke-width="1"/>
    </marker>
    <marker id="MyEndMarker" refX="-15" refY="0" viewBox="-15 -15 30 30"
             markerWidth="6" markerHeight="6">
      <ellipse rx="15" ry="5" fill="blue" stroke-width="1"/>
    </marker>
    <marker id="Triangle"
		viewBox="0 0 10 10" refX="5" refY="5"
		markerWidth="4" markerHeight="4"
		orient="auto">
	<path id = "mypath" d="M 0 0 L 10 5 L 0 10 z" fill="black" stroke="red" 
                  stroke-width="2" stroke-dasharray="none"/>
    </marker>

  </defs>

  <title> Some paths </title>

  <!-- path with data elements and markers -->
  <path d="M 100 100 L 200 200 L 270 150 L 400 200 l 50 50 l 25 75l 50 50 l 25 75" 
               marker-start="url(#MyStartMarker)" 
               marker-mid="url(#MyMidMarker)" 
               marker-end="url(#MyEndMarker)" 
               stroke="navy" stroke-width="3" />
   
  <!-- path using horizontal and vertical lineto -->
  <path d="M 10 10 h 580 v 580 h -580 z" stroke="aqua" stroke-width="4" />

  <!-- path using curveto -->
  <path d="M 250 250 C 250 350 350 250 350 350 c 100 0 0 100 100 100" 
        stroke="#ff0" stroke-width="5"/>

  <!-- path using smooth curveto -->
  <path d="M 50 500 S 175 450 200 400 s 50 50 100 0 s 50 50 0 100 s 25 25 0 50" 
        stroke="#f0f" stroke-width="5"/>

  <!-- path using quadratic bezier curveto -->
  <path d="M 450 100 Q 175 450 350 20 q 50 50 100 0 q 50 50 0 100 s 25 25 0 50" 
        stroke="#375" stroke-width="2" stroke-dasharray="5 5" 
        marker-start="url(#Triangle)" marker-mid="url(#Triangle)" marker-end="url(#Triangle)"/>

  <!-- path using smoth quadtratic bezier curveto -->
  <path d="M 100 20 t 25 12 32 12 34 56 31 23 42 12"  
        stroke="#621" stroke-width="2" stroke-dasharray="10 5"/>

  <!-- path using elliptical arcs  -->
    <path d="M 500 300 A 100 200 45 1 0 300 500" stroke="green" stroke-width="3" />
  
    <path d="M 100 200 A 320 120 -45 0 1 200 300" stroke="green" stroke-width="3" />
 

</svg>