<?xml version="1.0" encoding="iso-8859-1"?>
<!DOCTYPE svg PUBLIC "-//W3C//DTD SVG 20001102//EN" 
  "http://www.w3.org/TR/2000/CR-SVG-20001102/DTD/svg-20001102.dtd">

<svg width="9cm" height="1.4cm" viewBox="-4120 0 3538 554">
  <!-- <title>Layer 1</title> -->
  <path style="fill:#00559B" d="M-2964 315l2382 0 0 200 -2382 0 0 -200z"/>
  <path style="fill:#FFFFFF" d="M-2827 447c-9,13 -19,27 -39,27 -13,0 -29,-9 -29,-30 0,-30 28,-63 55,-63 15,0 22,9 22,17 0,9 -5,14 -12,14 -5,0 -11,-3 -11,-10 0,-5 4,-8 4,-11 0,-3 -3,-3 -5,-3 -17,0 -28,41 -28,54 0,16 8,19 14,19 9,0 16,-6 24,-17l5 3z"/>
  <path style="fill:#FFFFFF" d="M-2576 411c0,29 -24,63 -56,63 -15,0 -31,-11 -31,-29 0,-30 25,-64 56,-64 8,0 31,4 31,30zm-63 43c0,4 0,14 10,14 18,0 30,-54 30,-69 0,-9 -5,-12 -10,-12 -21,0 -30,55 -30,67z"/>
  <path style="fill:#FFFFFF" d="M-2323 447c-6,11 -16,26 -31,26 -3,0 -13,0 -13,-13 0,-14 17,-56 17,-60 0,-3 -3,-5 -5,-5 -5,0 -25,10 -42,76l-23 0c10,-37 20,-69 20,-74 0,-5 -6,-5 -11,-5l0 -5c4,0 24,-2 39,-6l-12 37 1 0c14,-21 24,-37 41,-37 5,0 15,1 15,16 0,12 -17,53 -17,59 0,2 1,4 3,4 4,0 9,-7 14,-15l4 2z"/>
  <path style="fill:#FFFFFF" d="M-2105 411l-5 0c-2,-10 -6,-23 -17,-23 -10,0 -10,9 -10,10 0,12 26,30 26,50 0,18 -17,26 -29,26 -9,0 -13,-4 -18,-4 -1,0 -5,0 -5,4l-6 0 5 -33 5 1c3,26 17,26 18,26 8,0 12,-6 12,-11 0,-5 -5,-13 -11,-20 -10,-12 -16,-20 -16,-31 0,-18 14,-25 26,-25 10,0 12,5 19,5 3,0 3,-1 5,-5l6 0 -5 30z"/>
  <path style="fill:#FFFFFF" d="M-1858 411c0,29 -24,63 -55,63 -16,0 -31,-11 -31,-29 0,-30 25,-64 56,-64 7,0 30,4 30,30zm-63 43c0,4 0,14 10,14 19,0 30,-54 30,-69 0,-9 -4,-12 -9,-12 -21,0 -31,55 -31,67z"/>
  <path style="fill:#FFFFFF" d="M-1695 387c20,-2 26,-2 39,-6l-11 35 1 0c6,-11 17,-35 30,-35 1,0 11,0 11,13 0,9 -5,14 -11,14 -7,0 -9,-7 -12,-7 -6,0 -16,19 -20,30 -5,13 -7,22 -13,40l-24 0c11,-35 20,-68 20,-74 0,-5 -3,-5 -10,-5l0 -5z"/>
  <path style="fill:#FFFFFF" d="M-1424 392l-17 0c-6,24 -17,58 -17,64 0,3 3,3 3,3 5,0 13,-11 15,-15l5 2c-8,12 -17,27 -32,27 -14,0 -14,-12 -14,-13 0,-8 9,-37 18,-68l-10 0 0 -7c7,-3 22,-9 35,-29l7 0 -7 28 14 0 0 8z"/>
  <path style="fill:#FFFFFF" d="M-1233 446c-10,16 -18,27 -32,27 -12,0 -14,-9 -14,-13 0,-9 15,-57 15,-62 0,-6 -6,-6 -11,-6l0 -5c8,-1 26,-3 39,-6 -7,28 -19,69 -19,75 0,2 1,3 3,3 4,0 11,-9 15,-15l4 2zm-9 -108c8,0 14,6 14,13 0,7 -6,13 -14,13 -9,0 -12,-8 -12,-13 0,-5 4,-13 12,-13z"/>
  <path style="fill:#FFFFFF" d="M-984 448c-3,6 -14,25 -31,25 -3,0 -13,0 -13,-11 0,-8 3,-15 5,-21l-1 0c-15,21 -23,32 -37,32 -15,0 -15,-11 -15,-15 0,-14 14,-49 14,-60 0,-5 -4,-6 -11,-6l0 -5c18,-1 38,-6 41,-6l-18 60c-3,8 -3,10 -3,13 0,4 2,5 4,5 8,0 20,-19 22,-23 9,-16 14,-31 20,-52l22 0c-3,13 -20,66 -20,72 0,3 2,4 3,4 5,0 12,-12 14,-15l4 3z"/>
  <path style="fill:#FFFFFF" d="M-819 387c21,-2 26,-2 39,-6l-12 37 1 0c11,-17 24,-37 41,-37 1,0 13,0 13,13 0,8 -3,15 -4,19l0 0c10,-15 21,-32 37,-32 11,0 15,7 15,16 0,12 -17,52 -17,60 0,2 2,3 3,3 4,0 10,-10 14,-15l4 2c-6,11 -15,26 -31,26 -3,0 -13,0 -13,-13 0,-14 17,-55 17,-60 0,-2 -2,-5 -5,-5 -8,0 -18,17 -21,23 -8,12 -10,21 -20,53l-23 0c15,-48 21,-65 21,-71 0,-4 -2,-5 -4,-5 -1,0 -23,5 -41,76l-23 0c11,-41 20,-68 20,-74 0,-6 -8,-5 -11,-5l0 -5z"/>
  <path style="fill:#1F1A17" d="M-2736 108l29 0 -66 225 -3 0 -42 -140 -42 140 -2 0 -67 -225 29 0 40 137 28 -93 -14 -44 30 0 40 137 40 -137z"/>
  <path style="fill:#1F1A17" d="M-1764 103l30 0 -67 225 -3 0 -42 -139 -41 139 -3 0 -67 -225 30 0 40 137 27 -92 -13 -45 29 0 40 137 40 -137z"/>
  <path style="fill:#1F1A17" d="M-963 103l30 0 -67 225 -3 0 -42 -139 -41 139 -3 0 -67 -225 30 0 40 137 27 -92 -13 -45 29 0 40 137 40 -137z"/>
  <path style="fill:#1F1A17" d="M-913 129l89 0 0 29 -59 0 0 36 59 0 0 30 -59 0 0 53 59 0 0 30 -89 0 0 -178z"/>
  <path style="fill:#1F1A17" d="M-774 129l62 0c27,0 48,21 48,47 0,12 -4,22 -10,30 13,10 22,25 22,45 0,30 -26,56 -57,56 -3,0 -65,0 -65,0l0 -178zm30 65l32 0c10,0 18,-8 18,-18 0,-9 -8,-18 -18,-18 -2,0 -32,0 -32,0l0 36zm0 83l35 0c15,0 27,-12 27,-26 0,-15 -12,-27 -27,-27 -5,0 -35,0 -35,0l0 53z"/>
  <path style="fill:#1F1A17" d="M-2636 126c40,0 62,41 62,92 0,50 -22,92 -62,92 -40,0 -63,-42 -63,-92 0,-51 23,-92 63,-92zm0 154c17,0 31,-28 31,-62 0,-34 -14,-62 -31,-62 -17,0 -31,28 -31,62 0,34 14,62 31,62z"/>
  <path style="fill:#1F1A17" d="M-2396 307l-37 0 -42 -60c-7,0 -22,0 -22,0l0 60 -30 0 0 -178 57 0c32,0 59,27 59,59 0,23 -13,43 -32,53l47 66zm-45 -119c0,-16 -13,-30 -29,-30 -3,0 -27,0 -27,0l0 60 27 0c16,0 29,-14 29,-30z"/>
  <path style="fill:#1F1A17" d="M-2328 277l59 0 0 30 -89 0 0 -178 30 0 0 148z"/>
  <path style="fill:#1F1A17" d="M-2248 129l41 0c44,0 80,40 80,89 0,49 -36,89 -80,89 -4,0 -41,0 -41,0l0 -178zm30 148l11 0c26,0 48,-26 48,-59 0,-33 -22,-60 -48,-60 -4,0 -11,0 -11,0l0 119z"/>
  <path style="fill:#1F1A17" d="M-1612 129l41 0c44,0 80,40 80,89 0,49 -36,89 -80,89 -4,0 -41,0 -41,0l0 -178zm30 148l11 0c26,0 48,-26 48,-59 0,-33 -22,-60 -48,-60 -4,0 -11,0 -11,0l0 119z"/>
  <path style="fill:#1F1A17" d="M-1443 129l88 0 0 29 -59 0 0 36 59 0 0 30 -59 0 0 53 59 0 0 30 -88 0 0 -178z"/>
  <path style="fill:#1F1A17" d="M-1697 128l26 0 0 178 -26 0 0 -178z"/>
  <path style="fill:#1F1A17" d="M-3098 0l11 71 -41 78c0,0 -15,-33 -41,-52 -22,-15 -37,-19 -59,-14 -29,6 -61,40 -76,83 -17,50 -17,75 -17,97 -1,37 4,58 4,58 0,0 -24,-46 -24,-113 0,-48 7,-92 30,-135 19,-38 48,-60 74,-63 27,-3 48,10 64,24 17,15 34,47 34,47l41 -81z"/>
  <path style="fill:#1F1A17" d="M-3093 398c0,0 -18,32 -30,44 -11,13 -31,35 -56,46 -25,11 -38,13 -62,10 -25,-2 -48,-16 -56,-22 -8,-6 -28,-23 -40,-40 -11,-16 -29,-49 -29,-49 0,0 10,33 16,47 4,8 15,32 31,53 14,20 43,54 87,62 43,8 73,-12 80,-16 8,-5 23,-18 33,-29 11,-11 20,-25 26,-33 4,-7 10,-19 10,-19l-10 -54z"/>
  <path style="fill:#00569C" d="M-3845 3l98 335 99 -335 71 0 -163 551 -7 0 -102 -341 -102 341 -6 0 -163 -551 71 0 98 335 67 -225 -33 -110 72 0z"/>
  <path style="fill:#00569C" d="M-3375 377c0,50 -13,92 -39,126 -27,34 -61,51 -103,51 -32,0 -60,-11 -83,-31 -24,-20 -41,-47 -52,-82l55 -23c8,21 19,38 33,50 13,12 29,18 47,18 19,0 35,-11 48,-32 13,-22 20,-47 20,-77 0,-33 -7,-59 -21,-77 -17,-21 -42,-32 -77,-32l-27 0 0 -32 95 -165 -115 0 -32 55 -20 0 0 -123 265 0 0 34 -101 173c35,11 62,32 80,62 18,30 27,65 27,105z"/>
</svg>
